 <svg xmlns="http://www.w3.org/2000/svg" viewBox="0 0 32 32">
  <path id="FrontSheet" d="M11 6c1.5 0 1.5 0 1.5 1.5V13c0 1.5 1 2.5 2.5 2.5h5.5c1.5 0 1.5 0 1.5 1.5v12c0 2-1 3-3 3H4c-2 0-3-1-3-3V9c0-2 1-3 3-3h7Zm10 8h-5c-1.5 0-2-.5-2-2V7c0-1 .3-.8 1 0l6 6c.7.7 1 1 0 1Z"/>
  <path id="BackSheet" d="M11 5c-1 0-1 0-1-1V3c0-2 1-3 3-3h7c1.5 0 1.5 0 1.5 1.5V7c0 1.5 1 2.5 2.5 2.5h5.5c1.5 0 1.5 0 1.5 1.5v12c0 2-1 3-3 3h-3.5c-1 0-1 0-1-1V13.5c0-.3-.1-.6-.3-.8l-7.8-7.3c-.2-.3-.6-.4-1-.4H11Zm19 3h-5c-1.5 0-2-.5-2-2V1c0-1 .3-.8 1 0l6 6c.7.7 1 1 0 1Z"/>
</svg>