<svg viewBox="0 0 32 32" xmlns="http://www.w3.org/2000/svg" >
    <path d="M29,7L6,30L2,31L1,31L1,30L2,26L25,3C28,-4.5 36.5,4 29,7ZM3,27L2,30L5,29L3,27ZM28,2C27,2 26,3 26,4C26,5 27,6 28,6C29,6 30,5 30,4C30,3 29,2 28,2ZM6,-0L8,2L6,4L7,5L9,3L10,4L8,6L9,7L11,5L12,6L10,8L11,9L13,7L14,8L12,10L13,11L15,9L16,10L10,16L0,6L6,-0ZM31,26L25.5,31.5L16,22L19,19C19.723,18.255 20.39,17.921 21,18L22,17L23,18L21,20L22,21L24,19L25,20L23,22L24,23L26,21L27,22L25,24L26,25L28,23L29,24L27,26L28,27L30,25L31,26Z"/>
</svg>
