<?xml version="1.0" encoding="UTF-8" standalone="no"?>
<!DOCTYPE svg PUBLIC "-//W3C//DTD SVG 1.1//EN" "http://www.w3.org/Graphics/SVG/1.1/DTD/svg11.dtd">
<svg width="100%" height="100%" viewBox="0 0 32 32" version="1.1" xmlns="http://www.w3.org/2000/svg" xmlns:xlink="http://www.w3.org/1999/xlink" xml:space="preserve" xmlns:serif="http://www.serif.com/" style="fill-rule:evenodd;clip-rule:evenodd;stroke-linejoin:round;stroke-miterlimit:2;">
    <path d="M27,27C29,27 29,27 29,29L29,30C29,32 29,32 27,32L5,32C3,32 3,32 3,30L3,29C3,27 3,27 5,27L27,27ZM21,12C21,13 21,13 22,13C22,13 25.429,13 27,13C28,13 29,13 28,14C24.841,17.159 16,26 16,26L4,14C3,13 4,13 5,13L10,13C11,13 11,13 11,12L11,1C11,0 11,0 12,0L20,0C21,0 21,0 21,1L21,12Z"/>
</svg>
