<svg xmlns="http://www.w3.org/2000/svg" viewBox="0 0 64 64">
  <path d="M27 46c1-3-3-6-4-5 1-2-2-7-6-4 0-1-4-4-7-1l-1 1-3-3 9-15 6 2v1c-1 1-7 9-1 9 4 0 7-4 9-6 3-3 20 11 20 11 .8.7 1 1.3 3 3 3.5 3 .1 6-3 4l-7.5-5c-3-2-4.5-2-2.5 0l9.5 6.2c2 1 1 5-3 3L38 43c-5-3-4 0 5 4 4 2 1 5.7-2.5 4l-6-3c-1.5-.5-2.5.4 2.5 2.4 3.2 1.3 1 4.5-2 3.5-2-.6-5.3-1.7-5-2 3.2-4.5-1.2-7.7-3-5.9ZM11 13l2 2c1 1 2 1 1 3L5 33c-1 2-2 2-3 1l-2-2 11-19Zm40 4c-1-2-1-2 1-3l2-1 10 19-2 2c-1 1-2 1-3-1l-8-16Zm-26 2c2-2 2-3 9-2l12 2 4-1 8 16s-3 7-4 5c-2-3-18-16-23-16-2 0-3 0-5 3-3 3-6 4-7 3s6-10 6-10ZM8 41l3-4c2-2 5 0 4 2l-4 5c-2 2-4-1-3-3Zm4 4 5-6c2-3 6 0 4 3l-5 6c-2 3-6 0-4-3Zm5 4 4-5c2-3 6 0 4 3l-5 6c-2 2-6-1-3-4Zm5 4 3-4c2-4 6-1 4 2l-3 4c-2 2-5 0-4-2Z"/>
</svg>