<svg xmlns="http://www.w3.org/2000/svg" xml:space="preserve" fill-rule="evenodd" stroke-linejoin="round" stroke-miterlimit="2" clip-rule="evenodd" viewBox="0 0 64 64">
  <path d="M52 63H12C6 63 1 59 1 53V17C1 10 5 6 12 6v6c0 2 2 4 5 4s5-2 5-4V6h20v6c0 2 2 4 5 4s5-2 5-4V6c7 0 11 4 11 11v36c0 6-5 10-11 10Zm7-43H5v29c0 6 4 9 10 9h34c6 0 10-3 10-9V20Zm-39 8c3 0 6 3 6 6s-3 6-6 6-6-3-6-6 3-6 6-6Zm6 12c3 1 6 5 6 8s-6 4-12 4-12-1-12-4 3-7 6-8c3 3 9 3 12 0Zm28 11H38c-3 0-3-5 0-5h16c3 0 3 5 0 5Zm0-9H38c-3 0-3-5 0-5h16c3 0 3 5 0 5Zm0-9H38c-3 0-3-5 0-5h16c3 0 3 5 0 5ZM20 12c0 1-1 2-3 2s-3-1-3-2V3c0-1 1-2 3-2s3 1 3 2v9Zm24 0V3c0-1 1-2 3-2s3 1 3 2v9c0 1-1 2-3 2s-3-1-3-2Z"/>
</svg>
