<svg xmlns="http://www.w3.org/2000/svg" viewBox="0 0 64 64">
  <path d="M52 63H12C6 63 1 59 1 53V17C1 10 5 6 12 6v6c0 2 2 4 5 4s5-2 5-4V6h20v6c0 2 2 4 5 4s5-2 5-4V6c7 0 11 4 11 11v36c0 6-5 10-11 10Zm2-14c3 0 3-4 0-4H40c-3 0-3 4 0 4h14Zm0-9c3 0 3-4 0-4H40c-3 0-3 4 0 4h14Zm0-9c3 0 3-4 0-4H40c-3 0-3 4 0 4h14Zm-28 7c-3 3-9 3-12 0-3 1-6 5-6 8s6 4 12 4 12-1 12-4-3-7-6-8Zm-6-12c-3 0-6 3-6 6s3 6 6 6 6-3 6-6-3-6-6-6Zm0-14c0 1-1 2-3 2s-3-1-3-2V3c0-1 1-2 3-2s3 1 3 2v9Zm24 0V3c0-1 1-2 3-2s3 1 3 2v9c0 1-1 2-3 2s-3-1-3-2Z"/>
</svg>