<svg xmlns="http://www.w3.org/2000/svg" viewBox="0 0 64 64">
  <path class="gel moon" d="M21 2a32 32 0 0 1 43 30 32 32 0 0 1-63 8A25 25 0 1 0 21 2ZM10.6 22.3l-1.9-2.8H4.8a.5.5 0 0 1-.1-1l2.8-1.8v-3.9c0-.2.2-.5.5-.5.2 0 .4.2.5.4l1.8 2.8h3.9c.2 0 .5.2.5.5 0 .2-.2.4-.4.5l-2.8 1.8v3.8c0 .3-.2.6-.5.6a.5.5 0 0 1-.5-.4h.1Zm22 4L28 21.7l-7 1.8h-.3a.5.5 0 0 1-.3-1l4.9-4.6-1.9-6.8v-.3c0-.2.2-.5.5-.5l.4.3 4.7 4.8 6.8-1.9h.3c.2 0 .5.2.5.4s-.1.4-.3.5L31.6 19l1.9 6.8v.3c0 .2-.2.5-.5.5a.5.5 0 0 1-.4-.3Zm-9 21-4.8-5.8H11a.5.5 0 0 1-.3-.9l5.8-4.8V28c0-.3.2-.5.5-.5.2 0 .3 0 .4.2l5.8 6.8 6.7-1h.3c.2 0 .5.2.5.5l-.3.4-5.9 5.8V47c0 .3-.2.5-.5.5-.2 0-.3 0-.4-.2Z"/>
</svg>