<!DOCTYPE svg PUBLIC "-//W3C//DTD SVG 1.1//EN" "http://www.w3.org/Graphics/SVG/1.1/DTD/svg11.dtd">
<svg xmlns="http://www.w3.org/2000/svg" xml:space="preserve" fill-rule="evenodd" stroke-linejoin="round" stroke-miterlimit="2" clip-rule="evenodd" viewBox="0 0 64 64">
  <path id="Moon" d="M21 2a32 32 0 0 1 43 30 32 32 0 0 1-63 8A25 25 0 1 0 21 2Z"/>
  <path id="Stars" d="m10.6 22.3-1.9-2.8H5a.5.5 0 0 1-.3-1l2.8-1.8V13a.5.5 0 0 1 1-.3l1.8 2.8H14a.5.5 0 0 1 .3 1l-2.8 1.8V22a.5.5 0 0 1-1 .3Zm22 4L28 21.7l-7 1.8a.5.5 0 0 1-.5-.9l4.8-4.7-1.9-6.8a.5.5 0 0 1 .9-.5l4.7 4.8 6.8-1.9a.5.5 0 0 1 .5.9L31.6 19l1.9 6.8a.5.5 0 0 1-.9.5Zm-9 21-4.8-5.8H11a.5.5 0 0 1-.3-.9l5.8-4.8V28a.5.5 0 0 1 .9-.3l5.8 6.8 6.7-1a.5.5 0 0 1 .5.9l-5.9 5.8V47a.5.5 0 0 1-.9.3Z"/>
</svg>
