<svg xmlns="http://www.w3.org/2000/svg" xml:space="preserve" fill-rule="evenodd" stroke-linejoin="round" stroke-miterlimit="2" clip-rule="evenodd" viewBox="0 0 64 64">
  <path d="M7 52a6 6 0 1 1-1 12 6 6 0 0 1 1-12Zm34 0a6 6 0 1 1-1 12 6 6 0 0 1 1-12Zm0-17a6 6 0 1 1-1 12 6 6 0 0 1 1-12Zm0-17a6 6 0 1 1-1 12 6 6 0 0 1 1-12ZM24 52a6 6 0 1 1-1 12 6 6 0 0 1 1-12Zm0-17a6 6 0 1 1-1 12 6 6 0 0 1 1-12Zm34 17a6 6 0 1 1-1 12 6 6 0 0 1 1-12Zm0-17a6 6 0 1 1-1 12 6 6 0 0 1 1-12Zm0-17a6 6 0 1 1-1 12 6 6 0 0 1 1-12Zm0-17a6 6 0 1 1-1 12 6 6 0 0 1 1-12Z"/>
</svg>