<svg xmlns="http://www.w3.org/2000/svg" viewBox="0 0 64 64">
  <path id="g1" fill="#111" d="M44.1 42a2.1 2.1 0 0 1-3.6-2.2 15 15 0 0 0 0-15.6 2.1 2.1 0 0 1 3.6-2.3c3.8 6.2 3.8 14 0 20.2ZM46 18.4a2.1 2.1 0 0 1 3.4-2.5c7 9.7 7 22.7 0 32.4a2.1 2.1 0 0 1-3.4-2.5 23.5 23.5 0 0 0 0-27.4Zm8.5 36a2.1 2.1 0 0 1-3.3-2.8 31.2 31.2 0 0 0 0-39 2.1 2.1 0 0 1 3.3-2.7 35.5 35.5 0 0 1 0 44.4ZM1.7 37V27a4 4 0 0 1 4-4h11l15-16.3A2 2 0 0 1 35.2 8v48a2 2 0 0 1-2 2h-.1a2 2 0 0 1-1.6-.7L16.7 41h-11a4 4 0 0 1-4-4Z"/>
</svg>