<svg xmlns="http://www.w3.org/2000/svg" xml:space="preserve" fill-rule="evenodd" stroke-linejoin="round" stroke-miterlimit="2" clip-rule="evenodd" viewBox="0 0 64 64">
  <path d="M32 15a17 17 0 1 1 0 34 17 17 0 0 1 0-34ZM12.8 28.5a19.6 19.6 0 0 0 0 7L0 32l12.8-3.5Zm.8 10c.8 2.3 2 4.3 3.5 6.1L4.3 48l9.3-9.4Zm5.8 8.4c1.8 1.5 3.8 2.7 6 3.5L16 59.7 19.4 47Zm9.1 4.3a19.6 19.6 0 0 0 7 0L32 64l-3.5-12.8Zm10-.8c2.3-.8 4.3-2 6.1-3.5L48 59.7l-9.4-9.3Zm8.4-5.8c1.5-1.8 2.7-3.8 3.5-6l9.3 9.4L47 44.6Zm4.3-9.1a19.6 19.6 0 0 0 0-7L64 32l-12.8 3.5Zm-.8-10c-.8-2.3-2-4.3-3.5-6.1L59.7 16l-9.3 9.4ZM44.6 17a19.5 19.5 0 0 0-6-3.5L48 4.3 44.6 17Zm-9.1-4.3a19.6 19.6 0 0 0-7 0L32 0l3.5 12.8Zm-10 .8c-2.3.8-4.3 2-6.1 3.5L16 4.3l9.4 9.3ZM17 19.4a19.5 19.5 0 0 0-3.5 6L4.3 16 17 19.4Z"/>
</svg>