<svg xmlns="http://www.w3.org/2000/svg" viewBox="0 0 64 64"> 
  <path class="gel sun" d="M32 15a17 17 0 0 1 17 17 17 17 0 0 1-17 17 17 17 0 0 1-17-17 17 17 0 0 1 17-17ZM12.8 28.5c-.4 2.3-.4 4.7 0 7L0 32l12.8-3.5Zm.8 10c.8 2.3 2 4.3 3.5 6.1L4.3 48l9.3-9.4v-.1Zm5.8 8.4c1.8 1.5 3.8 2.7 6 3.5L16 59.7 19.4 47v-.1Zm9.1 4.3c2.3.4 4.7.4 7 0L32 64l-3.5-12.8Zm10-.8c2.3-.8 4.3-2 6.1-3.5L48 59.7l-9.4-9.3h-.1Zm8.4-5.8c1.5-1.8 2.7-3.8 3.5-6l9.3 9.4L47 44.6h-.1Zm4.3-9.1c.4-2.3.4-4.7 0-7L64 32l-12.8 3.5Zm-.8-10c-.8-2.3-2-4.3-3.5-6.1L59.7 16l-9.3 9.4v.1ZM44.6 17a19.5 19.5 0 0 0-6-3.5L48 4.3 44.6 17Zm-9.1-4.3c-2.3-.4-4.7-.4-7 0L32 0l3.5 12.8v-.1Zm-10 .8c-2.3.8-4.3 2-6.1 3.5L16 4.3l9.4 9.3.1-.1ZM17 19.4a19.5 19.5 0 0 0-3.5 6L4.3 16 17 19.4Z"/>
</svg>