<svg xmlns="http://www.w3.org/2000/svg" viewBox="0 0 900 900">
  <path fill="white" d="M241.7 330.9c-84.5 157.9 31.7 225-28.3 329-5.7 9.8-13 19-20.3 27.1a44 44 0 0 1-68.4-4.1 401.6 401.6 0 0 1-56.2-112.7 33.9 33.9 0 0 1 26.4-43.6c16.2-3 27.2-18 25-34.3a330.8 330.8 0 0 1 41.8-208.8 330.8 330.8 0 0 1 77.8-91.6 22 22 0 0 0 6.8-24.7c-6.4-16.6-7.3-39.6 31-56.3C314 95 332 125.6 352 160.2c75 129.9 177.5 47.6 270.7 189l.5.8a20 20 0 1 0 34.1-20.9c-94.5-152-210.7-85-270.7-189a157 157 0 0 1-13.4-31.1A44 44 0 0 1 411 51.9c42-4.1 84.4-1.6 125.6 7.6a33.9 33.9 0 0 1 24.6 44.7 30.7 30.7 0 0 0 17.2 38.8c65 27 122 74.9 160 140.5a330.8 330.8 0 0 1 40.3 113.3 22 22 0 0 0 18 18.2c17.6 2.7 38 13.4 33.3 55-4.5 39.7-40 40-80 40-150 0-130 130-299 140h-1a20 20 0 1 0 1 40c179-5.8 179-140 299-140 11.5 0 23 1.6 33.8 4a44 44 0 0 1 30.5 61.3 401.6 401.6 0 0 1-69.4 105 33.9 33.9 0 0 1-51-1 30.7 30.7 0 0 0-42.2-4.6A330.8 330.8 0 0 1 450 783a330.8 330.8 0 0 1-118.3-21.6 22 22 0 0 0-24.8 6.5c-11.1 13.8-30.6 26.1-64.2 1.3-32.2-23.8-14.7-54.7 5.3-89.3 75-129.9-47.5-177.6 28.3-329l.5-.8a20 20 0 1 0-35.1-19.1Zm146 83.1A72 72 0 0 0 450 522a72 72 0 0 0 62.4-108 72 72 0 0 0-124.7 0Z"/>
</svg>