<svg xmlns="http://www.w3.org/2000/svg" xml:space="preserve" fill-rule="evenodd" stroke-linejoin="round" stroke-miterlimit="2" clip-rule="evenodd" viewBox="0 0 32 32">
  <path d="M2.5 6.1 16 2.5l13.5 3.6L16 12.4 2.5 6.1ZM16 5.5c-1.2 0-2.3.3-2.3.7 0 .5 1 .8 2.3.8 1.2 0 2.3-.3 2.3-.8 0-.4-1-.7-2.3-.7Zm14.5 1.3v15l-14 8.3V13.3l14-6.5Zm-2.3 5.4c0-1-.6-1.2-1.5-.8-.9.3-1.7 1.7-1.6 2.7.1 1 .7 1.2 1.6.8 1-.4 1.6-1.8 1.5-2.7Zm-5.6 9.4c0-1-.7-1.3-1.7-.8-1 .4-1.8 2-1.7 3 .2 1.1.8 1.3 1.7.9 1-.5 1.8-2.1 1.7-3.1Zm-7.1-8.3v16.8l-14-8.4v-15l14 6.6Zm-11-3.2c-.8-.5-1.5 0-1.5 1s.7 2.1 1.5 2.6 1.5 0 1.5-1c0-.9-.7-2-1.5-2.6ZM8.1 16c-1-.5-1.7-.1-1.7.9s.8 2.2 1.7 2.8c.8.5 1.6 0 1.6-1S8.9 16.6 8 16Zm3.7 6.2c-1-.5-1.7-.1-1.7 1 0 1 .8 2.2 1.7 2.8 1 .6 1.7.2 1.7-.9 0-1-.7-2.3-1.7-2.9Z"/>
</svg>
