<svg xmlns="http://www.w3.org/2000/svg" viewBox="0 0 71 66">
  <path d="m60 40.7-24 24c-3.6 3.5-16.6-1.5-25-10-8.6-8.5-13-22-10-25l7-7h1l3 4-5 5c-3.6 3.5 2 12 9 19s14.4 11.5 18 8l21-21c-5.8-1.4-11-6-16-11s-9.7-10.3-11-16l-12 12 1 1c3.6 3.7 8.1 6 10 7 .5.4 1 0 1 0a5 5 0 1 1 7 7c-2 2-5 2-7 0-2.2-2.1-2-3-2-3s-5-2-12-9c-8-7.8-6-13.2-3-16 6.3-6.4 13-4.4 14-4l5-5c2.7-2.8 14.4 3.5 23 12a66.6 66.6 0 0 1 14 20 66 66 0 0 1 4 18c0 3.7-1 7-6 7s-6-3-6-7c0-4.1 3.8-7.1 1-10Zm-37-33a10 10 0 0 0-9 3 6 6 0 0 0-1 7l10-10Zm9-2c-2 2 3.2 10.3 9 16 1 1 4.8 0 9 0 4 0 7 3 7 3-2-3-4.7-5.6-7-8-5.8-5.7-16-13.1-18-11Z"/>
</svg>
