<svg xmlns="http://www.w3.org/2000/svg" xml:space="preserve" fill-rule="evenodd" stroke-linejoin="round" stroke-miterlimit="2" clip-rule="evenodd" viewBox="0 0 72 80">
  <path d="M18 64a2 2 0 0 1 2 2v12a2 2 0 0 1-2 2h-4a2 2 0 0 1-2-2V66c0-1.1.9-2 2-2h4Zm-8 4v8H3a2 2 0 0 1-2-2v-4c0-1.1.9-2 2-2h7Zm12 8v-8h47a2 2 0 0 1 2 2v4a2 2 0 0 1-2 2H22Zm38-35L36 65c-3.5 3.5-16.5-1.5-25-10S-2 33 1 30l7-7h1l3 4-5 5c-3.5 3.5 2 12 9 19s14.5 11.5 18 8l21-21c-5.7-1.4-11-6-16-11s-9.6-10.3-11-16L16 23l1 1c3.7 3.7 8.2 6 10 7 .6.4 1 0 1 0a5 5 0 1 1 7 7c-2 2-4.9 2.1-7 0-2.1-2.1-2-3-2-3s-5-2-12-9c-7.8-7.8-5.8-13.2-3-16 6.4-6.4 13-4.4 14-4l5-5c2.8-2.8 14.5 3.5 23 12a66.6 66.6 0 0 1 14 20c1.8 4.3 4 13.4 4 18 0 3.7-1 7-6 7s-6-2.9-6-7 3.9-7.1 1-10ZM32 6c-2 2 3.3 10.3 9 16 1 1 4.9 0 9 0s7 3 7 3c-2-3-4.6-5.6-7-8-5.7-5.7-15.9-13.1-18-11Zm-9 2c-3.5-.7-6.9.9-9 3a6 6 0 0 0-1 7L23 8Z"/>
</svg>
