<svg xmlns="http://www.w3.org/2000/svg" xml:space="preserve" fill-rule="evenodd" stroke-linejoin="round" stroke-miterlimit="2" clip-rule="evenodd" viewBox="0 0 72 80">
  <path d="M18 64a2 2 0 0 1 2 2v12a2 2 0 0 1-2 2h-4a2 2 0 0 1-2-2V66c0-1.1.9-2 2-2h4Zm-8 4v8H3a2 2 0 0 1-2-2v-4c0-1.1.9-2 2-2h7Zm12 8v-8h47a2 2 0 0 1 2 2v4a2 2 0 0 1-2 2H22Zm-2-33C9 43 6 37 6 33c0-9 6-11.5 7-12v-7c0-4 13-8 25-8s25 4 25 8v41c0 5-13 10-25 10s-25-5-25-10V45c2 1 4 1 5 1v5c0 5 10 8 20 8s20-3 20-8V22c-5 3-13 4-20 4s-15-1-20-4v17h2c7 0 13-2 13-2v-1a5 5 0 0 1 5-5 5 5 0 0 1 5 5c0 2.7-2 5-5 5s-4-1-4-1-4 3-14 3Zm-7-19c-3 2-4 5-4 8s2 5.5 4 6V24Zm5-8c0 3 12 5 20 5s20-2 20-5-12-5-20-5-20 2-20 5Zm20 4c-10 0-17-2-17-3s8-3 17-3 17 2 17 3-7 3-17 3Z"/>
</svg>
